<?xml version="1.0" encoding="UTF-8" standalone="no"?>
<!DOCTYPE svg PUBLIC "-//W3C//DTD SVG 1.1//EN" "http://www.w3.org/Graphics/SVG/1.1/DTD/svg11.dtd">
<svg width="100%" height="100%" viewBox="0 0 256 257" version="1.1" xmlns="http://www.w3.org/2000/svg" xmlns:xlink="http://www.w3.org/1999/xlink" xml:space="preserve" xmlns:serif="http://www.serif.com/" style="fill-rule:evenodd;clip-rule:evenodd;stroke-linejoin:round;stroke-miterlimit:2;">
    <g transform="matrix(1,0,0,1,0,-1993)">
        <g id="Icon" transform="matrix(0.165803,0,0,0.512,0,1993.25)">
            <rect x="0" y="0" width="1544" height="500" style="fill:none;"/>
            <clipPath id="_clip1">
                <rect x="0" y="0" width="1544" height="500"/>
            </clipPath>
            <g clip-path="url(#_clip1)">
                <g transform="matrix(-1.64487,-6.52327e-17,3.78171e-16,-1,1960.75,500)">
                    <rect x="0" y="0" width="1544" height="500" style="fill:url(#_Linear2);"/>
                </g>
                <g transform="matrix(3.08571,0,0,1,-285.511,-1.35715e-12)">
                    <g transform="matrix(0.714815,0,0,0.714286,24.3624,20.3571)">
                        <path d="M466.115,185.9C546.888,185.9 612.465,251.478 612.465,332.251C612.465,413.024 546.888,478.601 466.115,478.601C385.342,478.601 319.764,413.024 319.764,332.251C319.764,251.478 385.342,185.9 466.115,185.9ZM512.94,198.286C508.4,208.111 497.696,214.099 486.514,212.211C479.88,211.092 473.065,210.51 466.115,210.51C464.83,210.51 463.568,210.411 462.336,210.22C461.118,210.486 459.865,210.661 458.584,210.739C451.671,211.16 444.913,212.159 438.358,213.689C427.315,216.267 416.259,210.955 411.117,201.429C414.342,211.768 410.413,223.395 400.845,229.492C395.07,233.172 389.625,237.325 384.565,241.897C376.131,249.516 363.849,250.206 354.732,244.318C362.561,251.826 364.726,263.93 359.265,273.893C356.009,279.835 353.234,286.077 350.993,292.568C347.292,303.293 336.899,309.822 326.095,309.093C336.577,311.875 344.327,321.414 344.375,332.771C344.404,339.719 345.014,346.532 346.163,353.161C348.098,364.334 342.155,375.064 332.351,379.646C342.856,377.026 354.232,381.617 359.767,391.515C363.112,397.496 366.946,403.165 371.215,408.471C378.342,417.327 378.329,429.63 371.929,438.395C379.875,431.006 392.086,429.537 401.722,435.563C407.477,439.162 413.553,442.293 419.898,444.903C430.386,449.217 436.302,459.961 434.956,470.703C438.334,460.412 448.289,453.226 459.621,453.822C461.771,453.934 463.936,453.992 466.115,453.992C470.845,453.992 475.513,453.722 480.103,453.197C491.371,451.908 501.742,458.46 505.751,468.515C503.743,457.88 508.981,446.789 519.181,441.834C525.347,438.837 531.224,435.335 536.756,431.382C546.005,424.774 558.287,425.49 566.672,432.38C559.746,424.022 558.979,411.745 565.547,402.469C569.476,396.921 572.953,391.03 575.923,384.85C580.835,374.63 591.904,369.344 602.547,371.307C592.474,367.341 585.878,356.997 587.119,345.724C587.606,341.299 587.856,336.804 587.856,332.251C587.856,329.897 587.789,327.559 587.657,325.239C587.014,313.91 594.156,303.926 604.433,300.503C593.698,301.895 582.927,296.025 578.569,285.556C575.932,279.222 572.775,273.159 569.151,267.419C563.085,257.809 564.501,245.591 571.857,237.613C563.119,244.051 550.816,244.116 541.93,237.027C536.607,232.781 530.921,228.97 524.926,225.651C515.004,220.158 510.365,208.802 512.94,198.286Z" style="fill:white;"/>
                        <circle cx="466.115" cy="332.251" r="146.35" style="fill:url(#_Radial3);"/>
                    </g>
                    <g transform="matrix(0.714815,0,0,0.714286,0.412408,0)">
                        <path d="M499.62,131.231L533.356,198.702L465.884,198.702L499.62,131.231Z" style="fill:white;"/>
                        <path d="M499.62,131.231L533.356,198.702L465.884,198.702L499.62,131.231Z" style="fill:url(#_Linear4);"/>
                    </g>
                    <g transform="matrix(0.50545,0.505076,-0.50545,0.505076,287.357,-176.874)">
                        <path d="M499.62,131.231L533.356,198.702L465.884,198.702L499.62,131.231Z" style="fill:white;"/>
                        <path d="M499.62,131.231L533.356,198.702L465.884,198.702L499.62,131.231Z" style="fill:url(#_Linear5);"/>
                    </g>
                    <g transform="matrix(1.66533e-16,0.714286,-0.714815,1.66533e-16,615.418,-99.1923)">
                        <path d="M499.62,131.231L533.356,198.702L465.884,198.702L499.62,131.231Z" style="fill:white;"/>
                        <path d="M499.62,131.231L533.356,198.702L465.884,198.702L499.62,131.231Z" style="fill:url(#_Linear6);"/>
                    </g>
                    <g transform="matrix(-0.50545,0.505076,-0.50545,-0.505076,792.423,187.54)">
                        <path d="M499.62,131.231L533.356,198.702L465.884,198.702L499.62,131.231Z" style="fill:white;"/>
                        <path d="M499.62,131.231L533.356,198.702L465.884,198.702L499.62,131.231Z" style="fill:url(#_Linear7);"/>
                    </g>
                    <g transform="matrix(-0.714815,5.55112e-17,-5.55112e-17,-0.714286,714.684,515.358)">
                        <path d="M499.62,131.231L533.356,198.702L465.884,198.702L499.62,131.231Z" style="fill:white;"/>
                        <path d="M499.62,131.231L533.356,198.702L465.884,198.702L499.62,131.231Z" style="fill:url(#_Linear8);"/>
                    </g>
                    <g transform="matrix(-0.50545,-0.505076,0.50545,-0.505076,427.74,692.232)">
                        <path d="M499.62,131.231L533.356,198.702L465.884,198.702L499.62,131.231Z" style="fill:white;"/>
                        <path d="M499.62,131.231L533.356,198.702L465.884,198.702L499.62,131.231Z" style="fill:url(#_Linear9);"/>
                    </g>
                    <g transform="matrix(-1.66533e-16,-0.714286,0.714815,-1.66533e-16,99.6782,614.55)">
                        <path d="M499.62,131.231L533.356,198.702L465.884,198.702L499.62,131.231Z" style="fill:white;"/>
                        <path d="M499.62,131.231L533.356,198.702L465.884,198.702L499.62,131.231Z" style="fill:url(#_Linear10);"/>
                    </g>
                    <g transform="matrix(0.50545,-0.505076,0.50545,0.505076,-77.3265,327.819)">
                        <path d="M499.62,131.231L533.356,198.702L465.884,198.702L499.62,131.231Z" style="fill:white;"/>
                        <path d="M499.62,131.231L533.356,198.702L465.884,198.702L499.62,131.231Z" style="fill:url(#_Linear11);"/>
                    </g>
                </g>
                <g transform="matrix(2.80652,0,0,0.908846,-1192.21,-68.7784)">
                    <path d="M699.94,502.469C708.663,522.941 718.847,541.217 729.716,556.535C621.66,556.535 533.932,468.807 533.932,360.751C533.932,252.695 621.66,164.967 729.716,164.967C718.669,180.535 708.329,199.161 699.502,220.047L698.975,219.803C689.405,215.074 685.475,203.465 690.204,193.895C692.529,189.189 694.924,184.62 697.379,180.198C694.669,177.73 692.648,174.49 691.689,170.782C692.996,180.041 687.406,189.145 678.182,191.961C672.601,193.666 667.137,195.639 661.806,197.868C652.905,201.588 642.788,198.145 637.886,190.178C641.858,198.65 639.183,209 631.186,214.398C626.361,217.656 621.705,221.146 617.235,224.851C609.802,231.012 599.11,230.668 592.095,224.464C598.366,231.42 598.814,242.108 592.725,249.6C589.063,254.105 585.619,258.794 582.408,263.651C577.087,271.7 566.765,274.476 558.255,270.586C566.269,275.41 569.811,285.493 566.178,294.429C564.003,299.782 562.083,305.264 560.433,310.863C557.708,320.114 548.659,325.793 539.386,324.576C548.465,326.833 554.812,335.432 553.964,345.042C553.507,350.218 553.274,355.457 553.274,360.751C553.274,361.326 553.276,361.901 553.282,362.475C553.374,372.129 546.363,380.208 537.125,381.738C546.47,381.259 555.043,387.644 557.023,397.088C558.222,402.808 559.698,408.426 561.437,413.927C564.345,423.123 560.012,432.889 551.64,437.06C560.43,433.86 570.498,437.444 575.164,445.887C577.981,450.985 581.043,455.929 584.335,460.704C589.813,468.651 588.525,479.269 581.727,485.709C589.209,480.077 599.895,480.574 606.82,487.301C610.989,491.351 615.357,495.197 619.908,498.822C627.457,504.837 629.306,515.37 624.672,523.504C630.192,515.946 640.555,513.316 649.134,517.734C654.279,520.383 659.57,522.786 664.992,524.929C673.961,528.472 678.807,537.992 676.765,547.117C679.293,539.819 685.958,534.761 693.55,534.18C692.594,532.363 691.654,530.521 690.725,528.657C685.962,519.103 689.852,507.481 699.406,502.718L699.94,502.469ZM681.629,447.479C686.444,467.027 692.689,485.502 699.938,502.463L699.43,502.661C689.394,506.299 678.294,501.104 674.656,491.068C672.376,484.775 670.229,478.325 668.232,471.732C665.137,461.516 670.919,450.709 681.136,447.615L681.629,447.479ZM672.225,390.284C673.88,410.047 677.13,429.227 681.627,447.471L681.131,447.579C670.647,449.589 660.504,442.708 658.495,432.224C657.23,425.62 656.123,418.92 655.19,412.139C653.734,401.564 661.138,391.797 671.713,390.341L672.225,390.284ZM672.225,390.276L671.696,390.305C661.026,390.617 652.11,382.207 651.798,371.537C651.693,367.955 651.64,364.359 651.64,360.751C651.64,357.533 651.682,354.326 651.766,351.129C652.044,340.458 660.934,332.021 671.605,332.299L672.134,332.326C671.378,341.677 670.981,351.168 670.981,360.751C670.981,370.708 671.409,380.567 672.225,390.276ZM672.135,332.319L671.621,332.263C661.042,330.839 653.609,321.094 655.033,310.515C655.946,303.731 657.032,297.028 658.278,290.419C660.256,279.93 670.378,273.019 680.868,274.996L681.365,275.103C676.921,293.368 673.727,312.556 672.135,332.319ZM681.367,275.096L680.873,274.961C670.647,271.898 664.833,261.108 667.897,250.883C669.873,244.286 672,237.829 674.261,231.529C677.867,221.482 688.952,216.253 698.999,219.859L699.5,220.053C692.31,237.049 686.12,255.543 681.367,275.096Z" style="fill:white;"/>
                    <path d="M729.716,164.967C621.66,164.967 533.932,252.695 533.932,360.751C533.932,468.807 621.66,556.535 729.716,556.535C697.3,510.852 670.981,438.85 670.981,360.751C670.981,282.651 697.3,210.65 729.716,164.967Z" style="fill:url(#_Linear12);"/>
                </g>
            </g>
        </g>
    </g>
    <defs>
        <linearGradient id="_Linear2" x1="0" y1="0" x2="1" y2="0" gradientUnits="userSpaceOnUse" gradientTransform="matrix(-1027.54,1.25745e-13,-1.25745e-13,-1026.02,1027.54,250)"><stop offset="0" style="stop-color:rgb(98,83,128);stop-opacity:1"/><stop offset="0.53" style="stop-color:rgb(203,129,120);stop-opacity:1"/><stop offset="0.76" style="stop-color:rgb(240,155,93);stop-opacity:1"/><stop offset="1" style="stop-color:rgb(255,203,120);stop-opacity:1"/></linearGradient>
        <radialGradient id="_Radial3" cx="0" cy="0" r="1" gradientUnits="userSpaceOnUse" gradientTransform="matrix(-302.09,188.449,-188.449,-302.09,466.115,266.826)"><stop offset="0" style="stop-color:rgb(255,219,147);stop-opacity:1"/><stop offset="1" style="stop-color:rgb(255,190,0);stop-opacity:1"/></radialGradient>
        <linearGradient id="_Linear4" x1="0" y1="0" x2="1" y2="0" gradientUnits="userSpaceOnUse" gradientTransform="matrix(30.9565,72.5785,-23.5034,10.0248,468.663,131.231)"><stop offset="0" style="stop-color:rgb(255,190,0);stop-opacity:1"/><stop offset="1" style="stop-color:rgb(255,219,147);stop-opacity:1"/></linearGradient>
        <linearGradient id="_Linear5" x1="0" y1="0" x2="1" y2="0" gradientUnits="userSpaceOnUse" gradientTransform="matrix(30.9565,72.5785,-23.5034,10.0248,468.663,131.231)"><stop offset="0" style="stop-color:rgb(255,190,0);stop-opacity:1"/><stop offset="1" style="stop-color:rgb(255,219,147);stop-opacity:1"/></linearGradient>
        <linearGradient id="_Linear6" x1="0" y1="0" x2="1" y2="0" gradientUnits="userSpaceOnUse" gradientTransform="matrix(30.9565,72.5785,-23.5034,10.0248,468.663,131.231)"><stop offset="0" style="stop-color:rgb(255,190,0);stop-opacity:1"/><stop offset="1" style="stop-color:rgb(255,219,147);stop-opacity:1"/></linearGradient>
        <linearGradient id="_Linear7" x1="0" y1="0" x2="1" y2="0" gradientUnits="userSpaceOnUse" gradientTransform="matrix(30.9565,72.5785,-23.5034,10.0248,468.663,131.231)"><stop offset="0" style="stop-color:rgb(255,190,0);stop-opacity:1"/><stop offset="1" style="stop-color:rgb(255,219,147);stop-opacity:1"/></linearGradient>
        <linearGradient id="_Linear8" x1="0" y1="0" x2="1" y2="0" gradientUnits="userSpaceOnUse" gradientTransform="matrix(30.9565,72.5785,-23.5034,10.0248,468.663,131.231)"><stop offset="0" style="stop-color:rgb(255,190,0);stop-opacity:1"/><stop offset="1" style="stop-color:rgb(255,219,147);stop-opacity:1"/></linearGradient>
        <linearGradient id="_Linear9" x1="0" y1="0" x2="1" y2="0" gradientUnits="userSpaceOnUse" gradientTransform="matrix(30.9565,72.5785,-23.5034,10.0248,468.663,131.231)"><stop offset="0" style="stop-color:rgb(255,190,0);stop-opacity:1"/><stop offset="1" style="stop-color:rgb(255,219,147);stop-opacity:1"/></linearGradient>
        <linearGradient id="_Linear10" x1="0" y1="0" x2="1" y2="0" gradientUnits="userSpaceOnUse" gradientTransform="matrix(30.9565,72.5785,-23.5034,10.0248,468.663,131.231)"><stop offset="0" style="stop-color:rgb(255,190,0);stop-opacity:1"/><stop offset="1" style="stop-color:rgb(255,219,147);stop-opacity:1"/></linearGradient>
        <linearGradient id="_Linear11" x1="0" y1="0" x2="1" y2="0" gradientUnits="userSpaceOnUse" gradientTransform="matrix(30.9565,72.5785,-23.5034,10.0248,468.663,131.231)"><stop offset="0" style="stop-color:rgb(255,190,0);stop-opacity:1"/><stop offset="1" style="stop-color:rgb(255,219,147);stop-opacity:1"/></linearGradient>
        <linearGradient id="_Linear12" x1="0" y1="0" x2="1" y2="0" gradientUnits="userSpaceOnUse" gradientTransform="matrix(179.655,421.207,-136.401,58.1785,550.061,164.967)"><stop offset="0" style="stop-color:rgb(255,227,144);stop-opacity:1"/><stop offset="1" style="stop-color:white;stop-opacity:1"/></linearGradient>
    </defs>
</svg>
